<svg width="3933" height="2128" xmlns="http://www.w3.org/2000/svg" xmlns:xlink="http://www.w3.org/1999/xlink" xml:space="preserve" overflow="hidden"><defs><filter id="fx0" x="-10%" y="-10%" width="120%" height="120%" filterUnits="userSpaceOnUse" primitiveUnits="userSpaceOnUse"><feComponentTransfer color-interpolation-filters="sRGB"><feFuncR type="discrete" tableValues="0 0"/><feFuncG type="discrete" tableValues="0 0"/><feFuncB type="discrete" tableValues="0 0"/><feFuncA type="linear" slope="0.4" intercept="0"/></feComponentTransfer><feGaussianBlur stdDeviation="2.03835 2.03835"/></filter><filter id="fx1" x="-10%" y="-10%" width="120%" height="120%" filterUnits="userSpaceOnUse" primitiveUnits="userSpaceOnUse"><feComponentTransfer color-interpolation-filters="sRGB"><feFuncR type="discrete" tableValues="0 0"/><feFuncG type="discrete" tableValues="0 0"/><feFuncB type="discrete" tableValues="0 0"/><feFuncA type="linear" slope="0.4" intercept="0"/></feComponentTransfer><feGaussianBlur stdDeviation="2.03835 2.03835"/></filter><clipPath id="clip2"><rect x="61" y="52" width="388" height="97"/></clipPath><clipPath id="clip3"><path d="M364.5 658C364.5 462.767 522.543 304.5 717.5 304.5 912.456 304.5 1070.5 462.767 1070.5 658 1070.5 853.233 912.456 1011.5 717.5 1011.5 522.543 1011.5 364.5 853.233 364.5 658Z" fill-rule="evenodd" clip-rule="evenodd"/></clipPath><clipPath id="clip4"><rect x="59" y="52" width="459" height="118"/></clipPath><clipPath id="clip5"><path d="M1353.5 658C1353.5 462.767 1511.54 304.5 1706.5 304.5 1901.46 304.5 2059.5 462.767 2059.5 658 2059.5 853.233 1901.46 1011.5 1706.5 1011.5 1511.54 1011.5 1353.5 853.233 1353.5 658Z" fill-rule="evenodd" clip-rule="evenodd"/></clipPath><clipPath id="clip6"><path d="M2341.5 658C2341.5 462.767 2499.54 304.5 2694.5 304.5 2889.46 304.5 3047.5 462.767 3047.5 658 3047.5 853.233 2889.46 1011.5 2694.5 1011.5 2499.54 1011.5 2341.5 853.233 2341.5 658Z" fill-rule="evenodd" clip-rule="evenodd"/></clipPath><clipPath id="clip7"><path d="M3330.5 658C3330.5 462.767 3488.54 304.5 3683.5 304.5 3878.46 304.5 4036.5 462.767 4036.5 658 4036.5 853.233 3878.46 1011.5 3683.5 1011.5 3488.54 1011.5 3330.5 853.233 3330.5 658Z" fill-rule="evenodd" clip-rule="evenodd"/></clipPath></defs><g transform="translate(-234 -174)"><path d="M237.5 273.499C237.5 220.48 280.48 177.5 333.5 177.5L1101.5 177.5C1154.52 177.5 1197.5 220.48 1197.5 273.499L1197.5 2202.5C1197.5 2255.52 1154.52 2298.5 1101.5 2298.5L333.5 2298.5C280.48 2298.5 237.5 2255.52 237.5 2202.5Z" stroke="#000000" stroke-width="6.875" stroke-miterlimit="8" fill="#FFFFFF" fill-rule="evenodd"/><g clip-path="url(#clip2)" filter="url(#fx0)" transform="translate(464 1044)"><g><path d="M32.4023-1.89697 32.4023 0 2.61475 0 2.61475-1.89697 5.07568-1.89697C7.94678-1.89697 10.0317-2.73437 11.3306-4.40918 12.1509-5.50293 12.561-8.13477 12.561-12.3047L12.561-57.2168C12.561-60.7373 12.3389-63.0615 11.8945-64.1894 11.5527-65.0439 10.852-65.7788 9.79248-66.394 8.28857-67.2143 6.71631-67.6245 5.07568-67.6245L2.61475-67.6245 2.61475-69.5215 32.4023-69.5215 32.4023-67.6245 29.8901-67.6245C27.0532-67.6245 24.9853-66.7871 23.6865-65.1123 22.832-64.0185 22.4048-61.3867 22.4048-57.2168L22.4048-12.3047C22.4048-8.78418 22.627-6.45996 23.0713-5.33203 23.4131-4.47754 24.1309-3.74268 25.2246-3.12744 26.6943-2.30713 28.2495-1.89697 29.8901-1.89697ZM52.0785-38.4009C57.5815-45.0317 62.8281-48.3472 67.8183-48.3472 70.3818-48.3472 72.5863-47.7063 74.4321-46.4246 76.2778-45.1428 77.7475-43.0322 78.8412-40.0928 79.5932-38.042 79.9692-34.8975 79.9692-30.6592L79.9692-10.6128C79.9692-7.63916 80.2084-5.62256 80.6869-4.56299 81.0629-3.7085 81.6696-3.04199 82.507-2.56348 83.3444-2.08496 84.891-1.8457 87.1469-1.8457L87.1469 0 63.9218 0 63.9218-1.8457 64.8959-1.8457C67.0834-1.8457 68.613-2.17895 69.4845-2.84546 70.3561-3.51196 70.9628-4.49463 71.3046-5.79346 71.4413-6.30615 71.5097-7.9126 71.5097-10.6128L71.5097-29.8389C71.5097-34.1113 70.9543-37.2131 69.8434-39.1443 68.7326-41.0754 66.8613-42.041 64.2294-42.041 60.162-42.041 56.1117-39.8193 52.0785-35.376L52.0785-10.6128C52.0785-7.43408 52.2665-5.46875 52.6425-4.7168 53.121-3.72559 53.779-2.99927 54.6164-2.53784 55.4538-2.07642 57.1542-1.8457 59.7177-1.8457L59.7177 0 36.4926 0 36.4926-1.8457 37.518-1.8457C39.9106-1.8457 41.5256-2.45239 42.363-3.66577 43.2004-4.87915 43.6191-7.19482 43.6191-10.6128L43.6191-28.0444C43.6191-33.6841 43.4909-37.1191 43.2346-38.3496 42.9782-39.5801 42.5851-40.4175 42.0554-40.8618 41.5256-41.3061 40.8163-41.5283 39.9277-41.5283 38.9706-41.5283 37.8256-41.272 36.4926-40.7593L35.7236-42.605 49.874-48.3472 52.0785-48.3472ZM104.736-62.395 104.736-46.9629 115.707-46.9629 115.707-43.374 104.736-43.374 104.736-12.9199C104.736-9.87793 105.171-7.82715 106.043-6.76758 106.915-5.70801 108.034-5.17822 109.401-5.17822 110.529-5.17822 111.623-5.52856 112.682-6.22925 113.742-6.92993 114.562-7.96387 115.143-9.33105L117.143-9.33105C115.947-5.98144 114.255-3.46069 112.067-1.7688 109.88-0.0769044 107.624 0.769043 105.3 0.769043 103.727 0.769043 102.189 0.333252 100.685-0.53833 99.1814-1.40991 98.0706-2.65747 97.3528-4.28101 96.635-5.90454 96.2761-8.4082 96.2761-11.792L96.2761-43.374 88.8421-43.374 88.8421-45.0659C90.7219-45.8179 92.6445-47.0911 94.6099-48.8855 96.5752-50.6799 98.3269-52.8076 99.865-55.2686 100.651-56.5674 101.745-58.9429 103.146-62.395ZM128.281-29.2749C128.247-22.3022 129.939-16.8335 133.357-12.8687 136.775-8.90381 140.791-6.92139 145.405-6.92139 148.481-6.92139 151.156-7.76733 153.429-9.45923 155.702-11.1511 157.607-14.0478 159.145-18.1494L160.735-17.124C160.017-12.4414 157.932-8.17749 154.48-4.33227 151.027-0.487061 146.704 1.43555 141.508 1.43555 135.869 1.43555 131.041-0.760498 127.025-5.15259 123.009-9.54468 121.001-15.4492 121.001-22.8662 121.001-30.8984 123.06-37.1619 127.179-41.6565 131.297-46.1511 136.467-48.3984 142.688-48.3984 147.951-48.3984 152.275-46.6638 155.659-43.1946 159.043-39.7253 160.735-35.0854 160.735-29.2749ZM128.281-32.2485 150.019-32.2485C149.848-35.2563 149.489-37.3755 148.943-38.606 148.088-40.52 146.815-42.0239 145.123-43.1177 143.431-44.2114 141.662-44.7583 139.817-44.7583 136.98-44.7583 134.442-43.656 132.203-41.4514 129.964-39.2468 128.657-36.1792 128.281-32.2485ZM180.921-48.3472 180.921-37.7856C184.852-44.8267 188.885-48.3472 193.021-48.3472 194.901-48.3472 196.456-47.7747 197.687-46.6296 198.917-45.4846 199.532-44.1602 199.532-42.6562 199.532-41.3232 199.088-40.1953 198.199-39.2725 197.311-38.3496 196.251-37.8882 195.021-37.8882 193.824-37.8882 192.483-38.4778 190.996-39.657 189.509-40.8362 188.407-41.4258 187.689-41.4258 187.074-41.4258 186.407-41.084 185.69-40.4004 184.151-38.999 182.562-36.6919 180.921-33.479L180.921-10.9717C180.921-8.37402 181.246-6.40869 181.896-5.07568 182.34-4.15283 183.126-3.38379 184.254-2.76855 185.382-2.15332 187.005-1.8457 189.125-1.8457L189.125 0 165.079 0 165.079-1.8457C167.472-1.8457 169.249-2.22168 170.411-2.97363 171.266-3.52051 171.864-4.39209 172.206-5.58838 172.377-6.16943 172.462-7.82715 172.462-10.5615L172.462-28.7622C172.462-34.231 172.351-37.4866 172.129-38.529 171.907-39.5715 171.496-40.332 170.898-40.8105 170.3-41.2891 169.557-41.5283 168.668-41.5283 167.608-41.5283 166.412-41.272 165.079-40.7593L164.566-42.605 178.768-48.3472ZM220.644-43.2715 220.644-12.4072C220.644-8.03223 221.123-5.26367 222.08-4.10156 223.344-2.59766 225.036-1.8457 227.155-1.8457L231.411-1.8457 231.411 0 203.366 0 203.366-1.8457 205.468-1.8457C206.835-1.8457 208.083-2.1875 209.211-2.87109 210.339-3.55469 211.116-4.47754 211.544-5.63965 211.971-6.80176 212.185-9.05762 212.185-12.4072L212.185-43.2715 203.059-43.2715 203.059-46.9629 212.185-46.9629 212.185-50.0391C212.185-54.7217 212.937-58.6865 214.44-61.9336 215.944-65.1807 218.243-67.8039 221.336-69.8035 224.429-71.803 227.907-72.8027 231.77-72.8027 235.358-72.8027 238.657-71.6406 241.665-69.3164 243.647-67.7783 244.638-66.0522 244.638-64.1382 244.638-63.1128 244.194-62.1472 243.305-61.2415 242.417-60.3357 241.46-59.8828 240.434-59.8828 239.648-59.8828 238.819-60.1648 237.948-60.7288 237.076-61.2927 236.008-62.5061 234.743-64.3689 233.479-66.2317 232.316-67.4878 231.257-68.1372 230.197-68.7866 229.018-69.1113 227.719-69.1113 226.147-69.1113 224.814-68.6926 223.72-67.8552 222.626-67.0178 221.84-65.719 221.362-63.9587 220.883-62.1985 220.644-57.6611 220.644-50.3467L220.644-46.9629 232.744-46.9629 232.744-43.2715ZM264.007-6.76758C259.187-3.04199 256.163-0.888672 254.932-0.307617 253.086 0.546875 251.121 0.974121 249.036 0.974121 245.789 0.974121 243.114-0.136719 241.012-2.3584 238.91-4.58008 237.859-7.50244 237.859-11.1255 237.859-13.4155 238.372-15.3979 239.397-17.0728 240.799-19.397 243.234-21.5845 246.703-23.6353 250.173-25.686 255.94-28.1812 264.007-31.1206L264.007-32.9663C264.007-37.6489 263.263-40.8618 261.777-42.605 260.29-44.3481 258.128-45.2197 255.291-45.2197 253.138-45.2197 251.429-44.6387 250.164-43.4766 248.865-42.3144 248.216-40.9814 248.216-39.4775L248.318-36.5039C248.318-34.9316 247.917-33.7183 247.113-32.8638 246.31-32.0093 245.259-31.582 243.96-31.582 242.696-31.582 241.662-32.0264 240.859-32.915 240.055-33.8037 239.654-35.0171 239.654-36.5552 239.654-39.4946 241.158-42.1948 244.165-44.6558 247.173-47.1167 251.395-48.3472 256.829-48.3472 260.999-48.3472 264.417-47.6465 267.083-46.2451 269.1-45.1855 270.586-43.5278 271.543-41.272 272.159-39.8022 272.466-36.7944 272.466-32.2485L272.466-16.3037C272.466-11.8262 272.552-9.08325 272.723-8.07495 272.894-7.06665 273.176-6.3916 273.569-6.0498 273.962-5.70801 274.415-5.53711 274.927-5.53711 275.474-5.53711 275.953-5.65674 276.363-5.896 277.081-6.34033 278.465-7.58789 280.516-9.63867L280.516-6.76758C276.687-1.64062 273.03 0.922852 269.544 0.922852 267.869 0.922852 266.536 0.341797 265.545-0.820312 264.554-1.98242 264.041-3.96484 264.007-6.76758ZM264.007-10.1001 264.007-27.9932C258.846-25.9424 255.513-24.4897 254.009-23.6353 251.309-22.1313 249.378-20.5591 248.216-18.9185 247.054-17.2778 246.473-15.4834 246.473-13.5352 246.473-11.0742 247.207-9.03198 248.677-7.40845 250.147-5.78491 251.839-4.97314 253.753-4.97314 256.351-4.97314 259.769-6.68213 264.007-10.1001ZM324.081-17.8418C322.817-11.6553 320.339-6.89575 316.647-3.56323 312.956-0.230713 308.871 1.43555 304.394 1.43555 299.062 1.43555 294.413-0.803223 290.449-5.28076 286.484-9.7583 284.501-15.8081 284.501-23.4302 284.501-30.813 286.697-36.8115 291.09-41.4258 295.482-46.04 300.754-48.3472 306.906-48.3472 311.52-48.3472 315.314-47.1252 318.288-44.6814 321.262-42.2375 322.748-39.6997 322.748-37.0679 322.748-35.769 322.33-34.718 321.492-33.9148 320.655-33.1116 319.484-32.71 317.98-32.71 315.964-32.71 314.443-33.3594 313.417-34.6582 312.836-35.376 312.452-36.7432 312.264-38.7598 312.076-40.7764 311.384-42.3144 310.187-43.374 308.991-44.3994 307.333-44.9121 305.214-44.9121 301.796-44.9121 299.045-43.6475 296.96-41.1182 294.191-37.7686 292.807-33.3423 292.807-27.8394 292.807-22.2339 294.183-17.2864 296.934-12.9968 299.686-8.70728 303.403-6.5625 308.085-6.5625 311.435-6.5625 314.443-7.70752 317.109-9.99756 318.989-11.5698 320.817-14.4238 322.595-18.5596ZM338.885-29.2749C338.851-22.3022 340.543-16.8335 343.961-12.8687 347.379-8.90381 351.395-6.92139 356.009-6.92139 359.085-6.92139 361.76-7.76733 364.033-9.45923 366.306-11.1511 368.211-14.0478 369.749-18.1494L371.339-17.124C370.621-12.4414 368.536-8.17749 365.084-4.33227 361.632-0.487061 357.308 1.43555 352.113 1.43555 346.473 1.43555 341.645-0.760498 337.629-5.15259 333.613-9.54468 331.605-15.4492 331.605-22.8662 331.605-30.8984 333.664-37.1619 337.783-41.6565 341.901-46.1511 347.071-48.3984 353.292-48.3984 358.555-48.3984 362.879-46.6638 366.263-43.1946 369.647-39.7253 371.339-35.0854 371.339-29.2749ZM338.885-32.2485 360.623-32.2485C360.452-35.2563 360.094-37.3755 359.547-38.606 358.692-40.52 357.419-42.0239 355.727-43.1177 354.035-44.2114 352.266-44.7583 350.421-44.7583 347.584-44.7583 345.046-43.656 342.807-41.4514 340.568-39.2468 339.261-36.1792 338.885-32.2485Z" fill="#44546A" transform="matrix(1 0 0 1 68.03 136)"/></g></g><text fill="#44546A" font-family="Times New Roman,Times New Roman_MSFontService,sans-serif" font-weight="400" font-size="105" transform="matrix(1 0 0 1 529.787 1178)">Interface</text><g clip-path="url(#clip3)"><g><g><path d="M197.827 398.964 88.1544 423.777C79.5802 425.804 70.7305 421.71 66.7244 413.863 62.2101 406.049 63.5332 396.173 69.9455 389.822L186.627 273.134C192.471 267.7 200.853 265.968 208.373 268.64L239.04 280.841C241.246 276.509 243.651 272.148 246.048 267.795L213.565 254.881C200.763 250.227 186.432 253.169 176.5 262.492L59.5688 379.424C48.4251 390.342 46.0751 407.415 53.8546 420.938 59.6654 432.018 71.1348 438.969 83.6463 438.992 86.2534 438.986 88.8523 438.697 91.3976 438.132L194.863 414.724C195.716 409.671 196.695 404.479 197.827 398.964Z" stroke="#44546A" stroke-width="7.35417" transform="matrix(1 0 0 1.00142 364.5 304.5)"/><path d="M434.83 452.664C430.476 455.083 426.13 457.466 421.776 459.694L435.992 496.362C438.998 503.691 437.291 512.11 431.668 517.689L314.736 634.621C307.059 642.576 294.387 642.801 286.431 635.124 281.417 630.284 279.28 623.185 280.789 616.382L306.044 500.576C300.705 501.718 295.461 502.751 290.313 503.672L266.427 613.249C262.839 628.337 269.91 643.942 283.621 651.189 297.239 658.858 314.321 656.332 325.135 645.049L442.066 528.117C451.865 518.35 454.84 503.655 449.612 490.847Z" stroke="#44546A" stroke-width="7.35417" transform="matrix(1 0 0 1.00142 364.5 304.5)"/><path d="M650.925 56.5756C641.011 46.6695 603.762 49.1185 540.23 63.8562 524.477 67.5333 508.489 72.0708 491.354 77.7777L471.601 84.3964C418.031 107.052 369.475 140.087 328.731 181.596 238.275 272.009 213.021 382.064 205.998 439.625L205.564 443.184 256.227 493.847 259.786 493.413C330.857 484.743 433.44 456.547 518.55 371.437 560.201 330.949 593.297 282.507 615.875 228.987L624.045 206.189C627.796 195.731 631.186 184.862 634.135 173.933L638.364 158.321C654.521 98.8621 662.441 67.3201 650.925 56.5756ZM602.137 223.736C580.304 275.322 548.354 322.009 508.173 361.038 427.424 441.787 330.202 469.475 261.573 478.367L221.074 437.86C228.428 381.306 253.653 277.473 339.13 191.995 378.365 151.973 425.115 120.089 476.697 98.1708L496.009 91.7359C502.341 89.6252 508.511 87.7205 514.527 85.9261 534.835 97.5766 553.539 111.821 570.169 128.301 587.657 145.885 602.675 165.763 614.808 187.392 613.338 192.061 611.801 196.695 610.175 201.232ZM624.2 154.467 620.523 168.013C609 149.96 595.615 133.163 580.589 117.902 566.372 103.939 550.811 91.413 534.133 80.5061 537.288 79.7045 540.443 78.9102 543.576 78.1822 605.814 63.7386 636.135 63.6871 640.614 67.0553 645.99 74.2771 633.378 120.608 624.17 154.438Z" stroke="#44546A" stroke-width="7.35417" transform="matrix(1 0 0 1.00142 364.5 304.5)"/><path d="M225.699 486.978C222.835 485.474 220.146 483.656 217.683 481.558 215.386 479.033 213.394 476.246 211.749 473.255 208.461 467.813 204.733 461.643 197.253 460.753 190.385 459.959 183.281 463.842 172.801 474.314 157.622 489.493 104.767 555.901 123.528 575.905 126.714 578.947 131.012 580.543 135.412 580.317 144.48 580.317 157.048 575.544 173.36 565.955 192.104 554.873 209.497 541.652 225.192 526.558 235.591 515.851 239.613 508.327 238.643 501.4 237.584 493.81 231.274 490.185 225.699 486.978ZM214.742 516.211C187.443 543.51 141.81 569.573 134.258 565.852 130.279 557.593 156.989 510.923 183.222 484.691 186.503 480.733 190.586 477.515 195.202 475.248 196.773 476.932 198.11 478.82 199.18 480.86 201.442 484.913 204.199 488.671 207.388 492.045L207.557 492.214C210.859 495.141 214.498 497.663 218.397 499.73 220.398 500.772 222.305 501.985 224.096 503.356 224.074 503.488 223.986 506.658 214.742 516.211Z" stroke="#44546A" stroke-width="7.35417" transform="matrix(1 0 0 1.00142 364.5 304.5)"/><path d="M444.059 182.442C423.984 202.391 423.882 234.836 443.83 254.912 453.625 264.768 467.002 270.224 480.896 270.03 494.443 270.106 507.463 264.785 517.079 255.241 537.184 235.077 537.136 202.433 516.972 182.328 496.809 162.223 464.164 162.271 444.059 182.435ZM506.702 244.842C492.503 259.423 469.172 259.733 454.591 245.534 440.009 231.335 439.7 208.004 453.899 193.423 454.126 193.189 454.357 192.958 454.591 192.731 461.468 185.919 470.776 182.127 480.455 182.192 500.663 181.885 517.294 198.018 517.602 218.226 517.753 228.214 513.816 237.829 506.702 244.842Z" stroke="#44546A" stroke-width="7.35417" transform="matrix(1 0 0 1.00142 364.5 304.5)"/></g></g></g><path d="M364.5 658C364.5 462.767 522.543 304.5 717.5 304.5 912.456 304.5 1070.5 462.767 1070.5 658 1070.5 853.233 912.456 1011.5 717.5 1011.5 522.543 1011.5 364.5 853.233 364.5 658Z" stroke="#000000" stroke-width="6.875" stroke-miterlimit="8" fill="none" fill-rule="evenodd"/><path d="M1226.5 273.499C1226.5 220.48 1269.48 177.5 1322.5 177.5L2090.5 177.5C2143.52 177.5 2186.5 220.48 2186.5 273.499L2186.5 2202.5C2186.5 2255.52 2143.52 2298.5 2090.5 2298.5L1322.5 2298.5C1269.48 2298.5 1226.5 2255.52 1226.5 2202.5Z" stroke="#000000" stroke-width="6.875" stroke-miterlimit="8" fill="#FFFFFF" fill-rule="evenodd"/><g clip-path="url(#clip4)" filter="url(#fx1)" transform="translate(1420 1044)"><g><path d="M48.0395-23.2764 21.123-23.2764 16.4062-12.3047C15.2441-9.60449 14.6631-7.58789 14.6631-6.25488 14.6631-5.19531 15.1672-4.26392 16.1755-3.46069 17.1838-2.65747 19.3628-2.13623 22.7124-1.89697L22.7124 0 0.820312 0 0.820312-1.89697C3.72559-2.40967 5.60547-3.07617 6.45996-3.89648 8.20312-5.53711 10.1343-8.86963 12.2534-13.894L36.709-71.1108 38.5034-71.1108 62.7026-13.2788C64.6509-8.63037 66.4197-5.61401 68.009-4.22974 69.5984-2.84546 71.8115-2.06787 74.6484-1.89697L74.6484 0 47.2192 0 47.2192-1.89697C49.9878-2.03369 51.8591-2.49512 52.8332-3.28125 53.8074-4.06738 54.2944-5.02441 54.2944-6.15234 54.2944-7.65625 53.6108-10.0317 52.2436-13.2788ZM46.604-27.0703 34.812-55.166 22.7124-27.0703ZM95.5603-72.9053 95.5603-10.6128C95.5603-7.67334 95.7739-5.7251 96.2012-4.76807 96.6284-3.81103 97.2864-3.08472 98.1751-2.58911 99.0637-2.09351 100.721-1.8457 103.148-1.8457L103.148 0 80.1282 0 80.1282-1.8457C82.2815-1.8457 83.7512-2.06787 84.5374-2.51221 85.3235-2.95654 85.9387-3.69141 86.3831-4.7168 86.8274-5.74219 87.0496-7.70752 87.0496-10.6128L87.0496-53.269C87.0496-58.5669 86.9299-61.8225 86.6907-63.0359 86.4514-64.2493 86.0669-65.0781 85.5371-65.5225 85.0073-65.9668 84.3323-66.189 83.512-66.189 82.6233-66.189 81.4954-65.9155 80.1282-65.3686L79.2566-67.1631 93.2532-72.9053ZM121.259-17.124C118.388-18.5254 116.183-20.4822 114.645-22.9944 113.107-25.5066 112.338-28.2837 112.338-31.3257 112.338-35.9741 114.09-39.9731 117.593-43.3228 121.097-46.6724 125.583-48.3472 131.051-48.3472 135.529-48.3472 139.408-47.2534 142.69-45.0659L152.636-45.0659C154.106-45.0659 154.96-45.0232 155.199-44.9377 155.439-44.8523 155.61-44.707 155.712-44.5019 155.917-44.1943 156.02-43.6475 156.02-42.8613 156.02-41.9727 155.934-41.3574 155.763-41.0156 155.661-40.8447 155.481-40.708 155.225-40.6055 154.969-40.5029 154.106-40.4517 152.636-40.4517L146.535-40.4517C148.449-37.9907 149.406-34.8462 149.406-31.0181 149.406-26.6431 147.731-22.9004 144.382-19.79 141.032-16.6797 136.537-15.1245 130.898-15.1245 128.573-15.1245 126.198-15.4663 123.771-16.1499 122.267-14.8511 121.25-13.7146 120.721-12.7405 120.191-11.7664 119.926-10.9375 119.926-10.2539 119.926-9.67285 120.208-9.10889 120.772-8.56201 121.336-8.01514 122.438-7.62207 124.079-7.38281 125.036-7.24609 127.428-7.12646 131.257-7.02393 138.298-6.85303 142.861-6.61377 144.945-6.30615 148.124-5.86182 150.662-4.68262 152.559-2.76855 154.456-0.854492 155.404 1.50391 155.404 4.30664 155.404 8.16894 153.593 11.792 149.97 15.1758 144.638 20.166 137.682 22.6611 129.103 22.6611 122.506 22.6611 116.935 21.1743 112.389 18.2007 109.826 16.4917 108.544 14.7144 108.544 12.8687 108.544 12.0483 108.732 11.228 109.108 10.4077 109.689 9.14307 110.885 7.38281 112.697 5.12695 112.936 4.81934 114.679 2.97363 117.926-0.410156 116.149-1.46973 114.893-2.41821 114.158-3.25561 113.423-4.09302 113.056-5.0415 113.056-6.10107 113.056-7.29736 113.543-8.69873 114.517-10.3052 115.491-11.9116 117.738-14.1846 121.259-17.124ZM130.18-45.8862C127.651-45.8862 125.531-44.8779 123.822-42.8613 122.113-40.8447 121.259-37.7515 121.259-33.5815 121.259-28.1811 122.421-23.9941 124.745-21.0205 126.523-18.7646 128.778-17.6367 131.513-17.6367 134.111-17.6367 136.247-18.6108 137.922-20.5591 139.596-22.5073 140.434-25.5664 140.434-29.7363 140.434-35.1709 139.255-39.4263 136.896-42.5024 135.153-44.7583 132.914-45.8862 130.18-45.8862ZM120.746 0C119.14 1.74316 117.926 3.3667 117.106 4.8706 116.286 6.37451 115.876 7.75879 115.876 9.02344 115.876 10.6641 116.867 12.0996 118.849 13.3301 122.267 15.4492 127.206 16.5088 133.666 16.5088 139.819 16.5088 144.356 15.4236 147.278 13.2532 150.201 11.0828 151.662 8.76709 151.662 6.30615 151.662 4.52881 150.79 3.26416 149.047 2.51221 147.27 1.76025 143.749 1.31592 138.486 1.1792 130.795 0.974121 124.882 0.581055 120.746 0ZM184.375-48.3472C191.484-48.3472 197.192-45.647 201.499-40.2466 205.156-35.6323 206.985-30.3345 206.985-24.353 206.985-20.1489 205.977-15.8936 203.96-11.5869 201.943-7.28027 199.166-4.0332 195.629-1.8457 192.091 0.341797 188.152 1.43555 183.811 1.43555 176.736 1.43555 171.113-1.38428 166.943-7.02393 163.423-11.7749 161.663-17.1069 161.663-23.02 161.663-27.3267 162.731-31.6077 164.867-35.863 167.003-40.1184 169.814-43.2629 173.301-45.2966 176.787-47.3303 180.478-48.3472 184.375-48.3472ZM182.786-45.0146C180.974-45.0146 179.154-44.4763 177.325-43.3997 175.497-42.323 174.019-40.4346 172.891-37.7344 171.763-35.0342 171.199-31.5649 171.199-27.3267 171.199-20.4907 172.557-14.5947 175.275-9.63867 177.992-4.68262 181.572-2.20459 186.016-2.20459 189.331-2.20459 192.065-3.57178 194.219-6.30615 196.372-9.04053 197.449-13.7402 197.449-20.4053 197.449-28.7451 195.654-35.3076 192.065-40.0928 189.639-43.374 186.545-45.0146 182.786-45.0146ZM227.855-48.3472 227.855-37.7856C231.785-44.8267 235.819-48.3472 239.954-48.3472 241.834-48.3472 243.389-47.7747 244.62-46.6296 245.85-45.4846 246.466-44.1602 246.466-42.6562 246.466-41.3232 246.021-40.1953 245.133-39.2725 244.244-38.3496 243.184-37.8882 241.954-37.8882 240.758-37.8882 239.416-38.4778 237.929-39.657 236.442-40.8362 235.34-41.4258 234.622-41.4258 234.007-41.4258 233.341-41.084 232.623-40.4004 231.085-38.999 229.495-36.6919 227.855-33.479L227.855-10.9717C227.855-8.37402 228.179-6.40869 228.829-5.07568 229.273-4.15283 230.059-3.38379 231.187-2.76855 232.315-2.15332 233.939-1.8457 236.058-1.8457L236.058 0 212.013 0 212.013-1.8457C214.405-1.8457 216.182-2.22168 217.345-2.97363 218.199-3.52051 218.797-4.39209 219.139-5.58838 219.31-6.16943 219.395-7.82715 219.395-10.5615L219.395-28.7622C219.395-34.231 219.284-37.4866 219.062-38.529 218.84-39.5715 218.43-40.332 217.832-40.8105 217.233-41.2891 216.49-41.5283 215.601-41.5283 214.542-41.5283 213.346-41.272 212.013-40.7593L211.5-42.605 225.701-48.3472ZM261.169-72.9053C262.604-72.9053 263.826-72.4011 264.834-71.3928 265.843-70.3845 266.347-69.1626 266.347-67.727 266.347-66.2915 265.843-65.061 264.834-64.0356 263.826-63.0102 262.604-62.4976 261.169-62.4976 259.733-62.4976 258.503-63.0102 257.477-64.0356 256.452-65.061 255.939-66.2915 255.939-67.727 255.939-69.1626 256.443-70.3845 257.452-71.3928 258.46-72.4011 259.699-72.9053 261.169-72.9053ZM265.424-48.3472 265.424-10.6128C265.424-7.67334 265.638-5.71655 266.065-4.74243 266.492-3.76831 267.125-3.04199 267.962-2.56348 268.799-2.08496 270.329-1.8457 272.551-1.8457L272.551 0 249.736 0 249.736-1.8457C252.026-1.8457 253.564-2.06787 254.35-2.51221 255.136-2.95654 255.76-3.69141 256.221-4.7168 256.683-5.74219 256.913-7.70752 256.913-10.6128L256.913-28.7109C256.913-33.8037 256.76-37.102 256.452-38.606 256.213-39.6997 255.837-40.4602 255.324-40.8874 254.811-41.3147 254.111-41.5283 253.222-41.5283 252.265-41.5283 251.103-41.272 249.736-40.7593L249.018-42.605 263.168-48.3472ZM292.148-62.395 292.148-46.9629 303.12-46.9629 303.12-43.374 292.148-43.374 292.148-12.9199C292.148-9.87793 292.584-7.82715 293.455-6.76758 294.327-5.70801 295.446-5.17822 296.814-5.17822 297.942-5.17822 299.035-5.52856 300.095-6.22925 301.154-6.92993 301.975-7.96387 302.556-9.33105L304.555-9.33105C303.359-5.98144 301.667-3.46069 299.48-1.7688 297.292-0.0769044 295.036 0.769043 292.712 0.769043 291.14 0.769043 289.602 0.333252 288.098-0.53833 286.594-1.40991 285.483-2.65747 284.765-4.28101 284.048-5.90454 283.689-8.4082 283.689-11.792L283.689-43.374 276.255-43.374 276.255-45.0659C278.134-45.8179 280.057-47.0911 282.022-48.8855 283.988-50.6799 285.739-52.8076 287.277-55.2686 288.064-56.5674 289.157-58.9429 290.559-62.395ZM321.589-72.9053 321.589-38.5547C325.383-42.7246 328.391-45.3992 330.613-46.5784 332.835-47.7576 335.056-48.3472 337.278-48.3472 339.944-48.3472 342.234-47.6123 344.148-46.1426 346.062-44.6728 347.481-42.3657 348.403-39.2212 349.053-37.0337 349.378-33.0347 349.378-27.2241L349.378-10.6128C349.378-7.63916 349.617-5.60547 350.095-4.51172 350.437-3.69141 351.018-3.04199 351.838-2.56348 352.659-2.08496 354.163-1.8457 356.35-1.8457L356.35 0 333.279 0 333.279-1.8457 334.356-1.8457C336.543-1.8457 338.064-2.17895 338.919-2.84546 339.773-3.51196 340.371-4.49463 340.713-5.79346 340.815-6.34033 340.867-7.94678 340.867-10.6128L340.867-27.2241C340.867-32.3511 340.602-35.7178 340.072-37.3242 339.542-38.9307 338.696-40.1355 337.534-40.9387 336.372-41.7419 334.971-42.1436 333.33-42.1436 331.655-42.1436 329.912-41.6992 328.101-40.8105 326.289-39.9219 324.119-38.1274 321.589-35.4272L321.589-10.6128C321.589-7.3999 321.769-5.40039 322.128-4.61426 322.487-3.82812 323.153-3.17017 324.127-2.64038 325.101-2.1106 326.785-1.8457 329.177-1.8457L329.177 0 305.901 0 305.901-1.8457C307.986-1.8457 309.627-2.17041 310.823-2.81982 311.506-3.16162 312.053-3.81103 312.463-4.76807 312.874-5.7251 313.079-7.67334 313.079-10.6128L313.079-53.1152C313.079-58.4814 312.951-61.7798 312.694-63.0103 312.438-64.2407 312.045-65.0781 311.515-65.5225 310.985-65.9668 310.276-66.189 309.387-66.189 308.669-66.189 307.507-65.9155 305.901-65.3686L305.183-67.1631 319.231-72.9053ZM374.452-38.3496C377.87-41.7676 379.886-43.7329 380.501-44.2456 382.039-45.5444 383.697-46.5527 385.475-47.2705 387.252-47.9883 389.012-48.3472 390.755-48.3472 393.695-48.3472 396.224-47.4927 398.343-45.7837 400.462-44.0747 401.881-41.5967 402.599-38.3496 406.119-42.4512 409.093-45.1428 411.519-46.4246 413.946-47.7063 416.441-48.3472 419.005-48.3472 421.5-48.3472 423.713-47.7063 425.644-46.4246 427.575-45.1428 429.105-43.0493 430.233-40.144 430.985-38.1616 431.361-35.0513 431.361-30.813L431.361-10.6128C431.361-7.67334 431.583-5.65674 432.027-4.56299 432.369-3.81103 433.001-3.17017 433.924-2.64038 434.847-2.1106 436.351-1.8457 438.436-1.8457L438.436 0 415.262 0 415.262-1.8457 416.236-1.8457C418.253-1.8457 419.825-2.23877 420.953-3.0249 421.739-3.57178 422.303-4.44336 422.645-5.63965 422.782-6.2207 422.85-7.87842 422.85-10.6128L422.85-30.813C422.85-34.6411 422.389-37.3413 421.466-38.9136 420.133-41.1011 417.996-42.1948 415.057-42.1948 413.246-42.1948 411.425-41.7419 409.597-40.8362 407.768-39.9304 405.555-38.2471 402.957-35.7861L402.855-35.2222 402.957-33.0176 402.957-10.6128C402.957-7.3999 403.137-5.40039 403.496-4.61426 403.855-3.82812 404.53-3.17017 405.521-2.64038 406.512-2.1106 408.204-1.8457 410.597-1.8457L410.597 0 386.859 0 386.859-1.8457C389.456-1.8457 391.242-2.15332 392.216-2.76855 393.191-3.38379 393.866-4.30664 394.242-5.53711 394.413-6.11816 394.498-7.81006 394.498-10.6128L394.498-30.813C394.498-34.6411 393.934-37.3926 392.806-39.0674 391.302-41.2549 389.2-42.3486 386.5-42.3486 384.654-42.3486 382.826-41.853 381.014-40.8618 378.177-39.3579 375.99-37.666 374.452-35.7861L374.452-10.6128C374.452-7.53662 374.665-5.53711 375.092-4.61426 375.52-3.69141 376.152-2.99927 376.989-2.53784 377.827-2.07642 379.527-1.8457 382.091-1.8457L382.091 0 358.866 0 358.866-1.8457C361.019-1.8457 362.523-2.07642 363.377-2.53784 364.232-2.99927 364.881-3.73413 365.326-4.74243 365.77-5.75073 365.992-7.70752 365.992-10.6128L365.992-28.5571C365.992-33.7183 365.838-37.0508 365.531-38.5547 365.291-39.6826 364.915-40.4602 364.403-40.8874 363.89-41.3147 363.189-41.5283 362.301-41.5283 361.344-41.5283 360.199-41.272 358.866-40.7593L358.097-42.605 372.247-48.3472 374.452-48.3472Z" fill="#44546A" transform="matrix(1 0 0 1 68.3118 136)"/></g></g><text fill="#44546A" font-family="Times New Roman,Times New Roman_MSFontService,sans-serif" font-weight="400" font-size="105" transform="matrix(1 0 0 1 1486.07 1178)">Algorithm</text><g clip-path="url(#clip5)"><g><g><path d="M537.319 353C594.377 297.46 620.867 243.334 601.39 209.594 581.912 175.854 521.786 171.732 445.16 193.377 425.59 116.191 391.96 66.1875 353 66.1875 314.04 66.1875 280.409 116.191 260.841 193.377 184.21 171.732 124.093 175.852 104.61 209.594 85.1274 243.335 111.623 297.46 168.681 353 111.623 408.54 85.1326 462.666 104.61 496.406 116.156 516.404 141.963 526.002 177.032 526.002 205.441 525.31 233.627 520.798 260.832 512.585 280.399 589.791 314.033 639.813 353 639.813 391.967 639.813 425.601 589.791 445.168 512.585 472.373 520.798 500.559 525.311 528.968 526.002 564.026 526.002 589.845 516.401 601.39 496.406 620.867 462.666 594.377 408.54 537.319 353ZM530.197 194.411C558.938 194.411 579.827 201.662 588.65 216.948 604.513 244.416 578.386 292.622 526.485 342.795 505.786 323.989 483.837 306.607 460.789 290.768 458.596 262.897 454.519 235.206 448.587 207.886 475.059 199.738 502.51 195.205 530.197 194.411ZM400.802 435.795C384.831 445.017 368.828 453.466 353 461.106 337.172 453.468 321.169 445.019 305.198 435.798 289.227 426.576 273.909 416.942 259.382 407.055 258.081 389.525 257.396 371.441 257.396 353 257.396 334.559 258.081 316.475 259.382 298.947 273.911 289.06 289.23 279.425 305.198 270.204 321.166 260.983 337.177 252.538 353.009 244.899 368.834 252.537 384.834 260.984 400.802 270.204 416.77 279.424 432.091 289.06 446.619 298.949 447.918 316.474 448.604 334.558 448.604 353.002 448.604 371.447 447.92 389.527 446.619 407.055 432.091 416.939 416.773 426.574 400.802 435.795ZM444.936 425.919C442.676 448.741 439.129 471.417 434.314 493.839 412.47 486.794 391.043 478.519 370.134 469.055 382.715 462.699 395.402 455.896 408.155 448.533 420.89 441.183 433.151 433.645 444.936 425.919ZM335.865 469.056C314.956 478.52 293.529 486.794 271.687 493.84 266.871 471.418 263.324 448.742 261.064 425.92 272.842 433.624 285.101 441.163 297.844 448.537 310.598 455.899 323.289 462.702 335.865 469.056ZM243.885 396.159C225.25 382.791 207.385 368.382 190.375 353 207.385 337.618 225.25 323.209 243.885 309.841 243.102 323.892 242.703 338.279 242.688 353 242.688 367.705 243.087 382.091 243.885 396.159ZM261.064 280.081C263.324 257.259 266.871 234.583 271.686 212.161 293.514 219.201 314.925 227.468 335.821 236.923 323.26 243.269 310.601 250.117 297.844 257.464 285.109 264.816 272.849 272.355 261.064 280.081ZM370.174 236.92C391.073 227.478 412.49 219.226 434.322 212.204 439.134 234.613 442.677 257.275 444.936 280.083 433.158 272.378 420.899 264.838 408.156 257.464 395.42 250.114 382.759 243.266 370.174 236.92ZM462.115 309.841C480.75 323.209 498.615 337.618 515.625 353 498.615 368.382 480.75 382.791 462.115 396.159 462.898 382.108 463.298 367.722 463.313 353 463.313 338.295 462.913 323.909 462.115 309.841ZM353 80.8958C384.719 80.8958 413.404 127.621 430.903 197.658 404.268 206.181 378.241 216.499 353 228.54 327.759 216.5 301.732 206.182 275.097 197.658 292.596 127.621 321.281 80.8958 353 80.8958ZM117.35 216.948C133.21 189.481 188.018 188 257.421 207.863 251.485 235.191 247.407 262.889 245.213 290.768 222.164 306.607 200.214 323.989 179.515 342.795 127.614 292.622 101.491 244.416 117.35 216.948ZM117.35 489.052C101.491 461.584 127.614 413.378 179.518 363.205 200.217 382.012 222.166 399.393 245.214 415.232 247.408 443.111 251.487 470.809 257.422 498.137 188.016 518.002 133.208 516.523 117.35 489.052ZM353 625.104C321.277 625.104 292.59 578.368 275.092 508.32 301.729 499.794 327.758 489.475 353 477.433 378.242 489.475 404.272 499.794 430.909 508.32 413.41 578.368 384.722 625.104 353 625.104ZM588.65 489.052C572.79 516.519 517.982 518 448.579 498.137 454.515 470.809 458.593 443.111 460.787 415.232 483.836 399.393 505.786 382.012 526.485 363.205 578.386 413.378 604.513 461.584 588.65 489.052Z" stroke="#44546A" stroke-width="7.35417" transform="matrix(1 0 0 1.00142 1353.5 304.5)"/><path d="M353 308.875C328.631 308.875 308.875 328.631 308.875 353 308.875 377.37 328.631 397.125 353 397.125 377.37 397.125 397.125 377.37 397.125 353 397.099 328.642 377.358 308.902 353 308.875ZM353 382.417C336.754 382.417 323.583 369.246 323.583 353 323.583 336.754 336.754 323.583 353 323.583 369.246 323.583 382.417 336.754 382.417 353 382.398 369.239 369.239 382.398 353 382.417Z" stroke="#44546A" stroke-width="7.35417" transform="matrix(1 0 0 1.00142 1353.5 304.5)"/></g></g></g><path d="M1353.5 658C1353.5 462.767 1511.54 304.5 1706.5 304.5 1901.46 304.5 2059.5 462.767 2059.5 658 2059.5 853.233 1901.46 1011.5 1706.5 1011.5 1511.54 1011.5 1353.5 853.233 1353.5 658Z" stroke="#000000" stroke-width="6.875" stroke-miterlimit="8" fill="none" fill-rule="evenodd"/><path d="M2214.5 273.499C2214.5 220.48 2257.48 177.5 2310.5 177.5L3078.5 177.5C3131.52 177.5 3174.5 220.48 3174.5 273.499L3174.5 2202.5C3174.5 2255.52 3131.52 2298.5 3078.5 2298.5L2310.5 2298.5C2257.48 2298.5 2214.5 2255.52 2214.5 2202.5Z" stroke="#000000" stroke-width="6.875" stroke-miterlimit="8" fill="#FFFFFF" fill-rule="evenodd"/><text fill="#44546A" font-family="Times New Roman,Times New Roman_MSFontService,sans-serif" font-weight="400" font-size="105" transform="matrix(1 0 0 1 2521.6 1178)">Satellite</text><g clip-path="url(#clip6)"><g><g><path d="M655.991 442.721 562.594 349.323C550.827 337.556 532.441 337.556 520.675 349.323L463.312 406.685 437.573 380.946 515.527 302.992C527.294 291.225 527.294 272.839 515.527 261.073 515.527 261.073 515.527 261.073 515.527 261.073L503.025 248.571 533.912 238.275 466.254 169.146 455.958 200.033 443.456 187.531C431.689 175.765 413.304 175.765 401.537 187.531 401.537 187.531 401.537 187.531 401.537 187.531L323.583 266.221 297.844 240.481 355.206 183.119C366.973 171.352 366.973 152.967 355.206 141.2L261.073 47.8021C249.306 36.0354 230.921 36.0354 219.154 47.8021L89.7208 177.235C77.9541 189.002 77.9541 207.387 89.7208 219.154 89.7208 219.154 89.7208 219.154 89.7208 219.154L183.119 312.552C194.885 324.319 213.271 324.319 225.037 312.552L286.812 250.042 312.552 275.781 235.333 354.471C223.567 366.237 223.567 384.623 235.333 396.389 235.333 396.389 235.333 396.389 235.333 396.389L255.925 416.981 234.598 438.308C214.006 420.658 189.737 408.891 163.262 403.744 136.787 399.331 113.254 403.744 100.017 416.981L94.8687 422.129 123.55 451.546 123.55 554.504C122.815 554.504 121.344 554.504 120.608 554.504 104.429 554.504 91.1916 567.741 91.1916 583.921 91.1916 600.1 104.429 613.337 120.608 613.337 136.787 613.337 150.025 600.1 150.025 583.921 150.025 583.185 150.025 581.714 150.025 580.979L252.983 580.979 282.4 609.66 287.548 604.512C308.875 583.185 311.081 525.823 266.221 469.931L287.548 448.604 308.139 469.196C319.906 480.962 338.292 480.962 350.058 469.196L428.012 391.242 453.752 416.981 391.242 479.491C379.475 491.258 379.475 509.644 391.242 521.41L484.639 614.808C496.406 626.575 514.791 626.575 526.558 614.808L656.727 484.639C667.758 472.873 667.758 454.487 655.991 442.721ZM472.137 196.356 507.437 231.656 491.994 236.804 466.989 211.8 472.137 196.356ZM344.175 172.087 286.812 229.45 255.925 198.562 323.583 130.904 344.175 151.496C350.058 157.379 350.058 166.94 344.175 172.087 344.175 172.087 344.175 172.087 344.175 172.087ZM214.006 156.644 281.664 88.9854 312.552 119.873 244.894 187.531 214.006 156.644ZM235.333 198.562 162.527 271.369 131.64 240.481 204.446 167.675 235.333 198.562ZM230.185 58.0979C236.069 52.2146 244.894 52.2146 250.777 58.0979L271.369 78.6896 203.71 146.348 172.823 115.46 230.185 58.0979ZM95.6041 198.562C95.6041 194.885 97.075 191.208 100.017 188.267L162.527 125.756 193.415 156.644 120.608 229.45 100.017 208.858C97.075 205.917 95.6041 202.24 95.6041 198.562ZM214.006 302.256C208.123 308.139 199.298 308.139 193.415 302.256L172.823 281.664 245.629 208.858 276.517 239.746 214.006 302.256ZM183.119 510.379 138.258 555.239 138.258 465.519 183.119 510.379ZM130.904 593.481C125.021 599.364 116.196 599.364 110.312 593.481 104.429 587.598 104.429 578.773 110.312 572.889 116.196 567.006 125.021 567.006 130.904 572.889 136.787 578.773 136.787 587.598 130.904 593.481 130.904 593.481 130.904 593.481 130.904 593.481ZM148.554 565.535 193.415 520.675 238.275 565.535 148.554 565.535ZM280.929 587.598 116.196 422.864C130.169 416.246 145.612 414.775 160.321 418.452 179.442 422.129 208.858 432.425 240.481 464.048 290.489 513.321 293.431 565.535 280.929 587.598ZM255.925 458.9C254.454 457.429 252.983 455.223 250.777 453.752 248.571 452.281 247.1 450.075 245.629 448.604L266.221 428.012 276.517 438.308 255.925 458.9ZM339.027 458.164C333.144 464.048 324.319 464.048 318.435 458.164L297.844 437.573 297.844 437.573 286.812 427.277 286.812 427.277 276.517 416.981 266.221 406.685 245.629 386.094C239.746 380.21 239.746 371.385 245.629 365.502 245.629 365.502 245.629 365.502 245.629 365.502L411.833 198.562C417.716 192.679 426.542 192.679 432.425 198.562 432.425 198.562 432.425 198.562 432.425 198.562L450.075 216.212 450.075 216.212 487.581 253.719 505.231 271.369C511.114 277.252 511.114 286.077 505.231 291.96 505.231 291.96 505.231 291.96 505.231 291.96L339.027 458.164ZM516.262 458.164 583.921 390.506 614.808 421.394 547.15 489.052 516.262 458.164ZM536.854 500.083 464.048 572.889 433.16 542.002 505.966 469.196 536.854 500.083ZM531.706 359.619C537.589 353.735 546.414 353.735 552.298 359.619 552.298 359.619 552.298 359.619 552.298 359.619L572.889 380.21 505.231 447.869 474.344 416.981 531.706 359.619ZM401.537 489.787 464.048 427.277 494.935 458.164 422.129 530.971 401.537 510.379C395.654 504.496 395.654 495.671 401.537 489.787ZM516.262 603.777C510.379 609.66 501.554 609.66 495.671 603.777L475.079 583.185 547.885 510.379 578.773 541.266 516.262 603.777ZM589.068 530.971 557.446 500.083 625.104 432.425 645.696 453.016C651.579 458.9 651.579 467.725 645.696 473.608L589.068 530.971Z" stroke="#44546A" stroke-width="7.35416" transform="matrix(1 0 0 1.00142 2341.5 304.5)"/></g></g></g><path d="M2341.5 658C2341.5 462.767 2499.54 304.5 2694.5 304.5 2889.46 304.5 3047.5 462.767 3047.5 658 3047.5 853.233 2889.46 1011.5 2694.5 1011.5 2499.54 1011.5 2341.5 853.233 2341.5 658Z" stroke="#000000" stroke-width="6.875" stroke-miterlimit="8" fill="none" fill-rule="evenodd"/><path d="M3203.5 273.499C3203.5 220.48 3246.48 177.5 3299.5 177.5L4067.5 177.5C4120.52 177.5 4163.5 220.48 4163.5 273.499L4163.5 2202.5C4163.5 2255.52 4120.52 2298.5 4067.5 2298.5L3299.5 2298.5C3246.48 2298.5 3203.5 2255.52 3203.5 2202.5Z" stroke="#000000" stroke-width="6.875" stroke-miterlimit="8" fill="#FFFFFF" fill-rule="evenodd"/><text fill="#44546A" font-family="Times New Roman,Times New Roman_MSFontService,sans-serif" font-weight="400" font-size="105" transform="matrix(1 0 0 1 3542.46 1178)">Metric</text><g clip-path="url(#clip7)"><g><g><path d="M588.348 102.958 603.056 102.958 603.056 603.042 103.194 603.042 103.194 588.333 588.348 588.333 588.348 102.958Z" stroke="#44546A" stroke-width="7.35417" transform="matrix(1 0 0 1.00142 3330.5 304.5)"/><path d="M544.208 544.326 544.208 257.44 455.958 257.44 455.958 544.326ZM529.5 529.618 470.667 529.618 470.667 272.148 529.5 272.148Z" stroke="#44546A" stroke-width="7.35417" transform="matrix(1 0 0 1.00142 3330.5 304.5)"/><path d="M426.542 544.326 426.542 102.958 338.292 102.958 338.292 544.326ZM411.833 529.618 353 529.618 353 117.667 411.833 117.667Z" stroke="#44546A" stroke-width="7.35417" transform="matrix(1 0 0 1.00142 3330.5 304.5)"/><path d="M308.875 544.326 308.875 257.44 220.625 257.44 220.625 544.326ZM294.167 529.618 235.333 529.618 235.333 272.148 294.167 272.148Z" stroke="#44546A" stroke-width="7.35417" transform="matrix(1 0 0 1.00142 3330.5 304.5)"/><path d="M191.208 382.498 102.958 382.498 102.958 544.326 191.208 544.326ZM176.5 529.618 117.667 529.618 117.667 397.206 176.5 397.206Z" stroke="#44546A" stroke-width="7.35417" transform="matrix(1 0 0 1.00142 3330.5 304.5)"/></g></g></g><path d="M3330.5 658C3330.5 462.767 3488.54 304.5 3683.5 304.5 3878.46 304.5 4036.5 462.767 4036.5 658 4036.5 853.233 3878.46 1011.5 3683.5 1011.5 3488.54 1011.5 3330.5 853.233 3330.5 658Z" stroke="#000000" stroke-width="6.875" stroke-miterlimit="8" fill="none" fill-rule="evenodd"/><path d="M393.5 2033.5 552.502 1874.5 552.502 1954 3848.5 1954 3848.5 1874.5 4007.5 2033.5 3848.5 2192.5 3848.5 2113 552.502 2113 552.502 2192.5Z" stroke="#FFFFFF" stroke-width="4.58333" stroke-miterlimit="8" fill="#C7DCF1" fill-rule="evenodd" fill-opacity="0.501961"/><text font-family="Times New Roman,Times New Roman_MSFontService,sans-serif" font-style="italic" font-weight="700" font-size="110" transform="matrix(1 0 0 1 1424.04 2072)">A Unified </text><text font-family="Times New Roman,Times New Roman_MSFontService,sans-serif" font-style="italic" font-weight="700" font-size="110" transform="matrix(1 0 0 1 1888.33 2072)">Pansharpening</text><text font-family="Times New Roman,Times New Roman_MSFontService,sans-serif" font-style="italic" font-weight="700" font-size="110" transform="matrix(1 0 0 1 2613.07 2072)">Toolbox</text><rect x="297.5" y="1216.5" width="394" height="164" stroke="#000000" stroke-width="4.58333" stroke-miterlimit="8" fill="#FFEEBD" fill-opacity="0.2"/><text font-family="Times New Roman,Times New Roman_MSFontService,sans-serif" font-weight="400" font-size="73" transform="matrix(1 0 0 1 392.04 1325)">Config</text><rect x="755.5" y="1216.5" width="393" height="164" stroke="#000000" stroke-width="4.58333" stroke-miterlimit="8" fill="#FFEEBD" fill-opacity="0.2"/><text font-family="Times New Roman,Times New Roman_MSFontService,sans-serif" font-weight="400" font-size="73" transform="matrix(1 0 0 1 872.833 1325)">Train</text><rect x="299.5" y="1435.5" width="393" height="163" stroke="#000000" stroke-width="4.58333" stroke-miterlimit="8" fill="#FFEEBD" fill-opacity="0.2"/><text font-family="Times New Roman,Times New Roman_MSFontService,sans-serif" font-weight="400" font-size="73" transform="matrix(1 0 0 1 371.047 1544)">Logging</text><rect x="755.5" y="1435.5" width="393" height="163" stroke="#000000" stroke-width="4.58333" stroke-miterlimit="8" fill="#FFEEBD" fill-opacity="0.2"/><text font-family="Times New Roman,Times New Roman_MSFontService,sans-serif" font-weight="400" font-size="73" transform="matrix(1 0 0 1 883.856 1544)">Eval</text><rect x="299.5" y="1654.5" width="392" height="163" stroke="#000000" stroke-width="4.58333" stroke-miterlimit="8" fill="#FFEEBD" fill-opacity="0.2"/><text font-family="Times New Roman,Times New Roman_MSFontService,sans-serif" font-weight="400" font-size="73" transform="matrix(1 0 0 1 358.24 1762)">Visualize</text><text font-family="Times New Roman,Times New Roman_MSFontService,sans-serif" font-weight="400" font-size="73" transform="matrix(1 0 0 1 1744.21 1297)">-</text><text font-family="Times New Roman,Times New Roman_MSFontService,sans-serif" font-weight="400" font-size="73" transform="matrix(1 0 0 1 1787.17 1297)">FusionNet</text><text font-family="Times New Roman,Times New Roman_MSFontService,sans-serif" font-weight="400" font-size="73" transform="matrix(1 0 0 1 1744.21 1385)">-</text><text font-family="Times New Roman,Times New Roman_MSFontService,sans-serif" font-weight="400" font-size="73" transform="matrix(1 0 0 1 1787.17 1385)">GPPNN</text><text font-family="Times New Roman,Times New Roman_MSFontService,sans-serif" font-weight="400" font-size="73" transform="matrix(1 0 0 1 1744.21 1473)">-</text><text font-family="Times New Roman,Times New Roman_MSFontService,sans-serif" font-weight="400" font-size="73" transform="matrix(1 0 0 1 1787.17 1473)">SRPPNN</text><text font-family="Times New Roman,Times New Roman_MSFontService,sans-serif" font-weight="400" font-size="73" transform="matrix(1 0 0 1 1744.21 1561)">-</text><text font-family="Times New Roman,Times New Roman_MSFontService,sans-serif" font-weight="400" font-size="73" transform="matrix(1 0 0 1 1787.17 1561)">PGCU</text><text font-family="Times New Roman,Times New Roman_MSFontService,sans-serif" font-weight="400" font-size="73" transform="matrix(1 0 0 1 1314.09 1297)">-</text><text font-family="Times New Roman,Times New Roman_MSFontService,sans-serif" font-weight="400" font-size="73" transform="matrix(1 0 0 1 1357.06 1297)">PNN</text><text font-family="Times New Roman,Times New Roman_MSFontService,sans-serif" font-weight="400" font-size="73" transform="matrix(1 0 0 1 1314.09 1385)">-</text><text font-family="Times New Roman,Times New Roman_MSFontService,sans-serif" font-weight="400" font-size="73" transform="matrix(1 0 0 1 1357.06 1385)">PanNet</text><text font-family="Times New Roman,Times New Roman_MSFontService,sans-serif" font-weight="400" font-size="73" transform="matrix(1 0 0 1 1314.09 1473)">-</text><text font-family="Times New Roman,Times New Roman_MSFontService,sans-serif" font-weight="400" font-size="73" transform="matrix(1 0 0 1 1357.06 1473)">MSDCNN</text><text font-family="Times New Roman,Times New Roman_MSFontService,sans-serif" font-weight="400" font-size="73" transform="matrix(1 0 0 1 1314.09 1561)">-</text><text font-family="Times New Roman,Times New Roman_MSFontService,sans-serif" font-weight="400" font-size="73" transform="matrix(1 0 0 1 1355.73 1561)">TFNet</text><path d="M1282.5 1274.33C1282.5 1238.53 1311.53 1209.5 1347.33 1209.5L2065.67 1209.5C2101.47 1209.5 2130.5 1238.53 2130.5 1274.33L2130.5 1533.67C2130.5 1569.47 2101.47 1598.5 2065.67 1598.5L1347.33 1598.5C1311.53 1598.5 1282.5 1569.47 1282.5 1533.67Z" stroke="#000000" stroke-width="4.58333" stroke-miterlimit="8" fill="#C7E1B5" fill-rule="evenodd" fill-opacity="0.2"/><path d="M1287.5 1681.67C1287.5 1666.66 1299.66 1654.5 1314.67 1654.5L2108.33 1654.5C2123.34 1654.5 2135.5 1666.66 2135.5 1681.67L2135.5 1790.33C2135.5 1805.34 2123.34 1817.5 2108.33 1817.5L1314.67 1817.5C1299.66 1817.5 1287.5 1805.34 1287.5 1790.33Z" stroke="#000000" stroke-width="4.58333" stroke-miterlimit="8" fill="#C7E1B5" fill-rule="evenodd" fill-opacity="0.2"/><text font-family="Times New Roman,Times New Roman_MSFontService,sans-serif" font-weight="400" font-size="73" transform="matrix(1 0 0 1 1475.74 1762)">CMFNet</text><text font-family="Times New Roman,Times New Roman_MSFontService,sans-serif" font-weight="400" font-size="73" transform="matrix(1 0 0 1 1754.75 1762)">(Ours)</text><path d="M2258.5 1274.33C2258.5 1238.53 2287.53 1209.5 2323.33 1209.5L3041.67 1209.5C3077.47 1209.5 3106.5 1238.53 3106.5 1274.33L3106.5 1533.67C3106.5 1569.47 3077.47 1598.5 3041.67 1598.5L2323.33 1598.5C2287.53 1598.5 2258.5 1569.47 2258.5 1533.67Z" stroke="#000000" stroke-width="4.58333" stroke-miterlimit="8" fill="#FEF8F4" fill-rule="evenodd"/><text font-family="Times New Roman,Times New Roman_MSFontService,sans-serif" font-weight="400" font-size="73" transform="matrix(1 0 0 1 2340.86 1341)">-</text><text font-family="Times New Roman,Times New Roman_MSFontService,sans-serif" font-weight="400" font-size="73" transform="matrix(1 0 0 1 2383.82 1341)">GaoFen</text><text font-family="Times New Roman,Times New Roman_MSFontService,sans-serif" font-weight="400" font-size="73" transform="matrix(1 0 0 1 2634.19 1341)">1, 2, 6</text><text font-family="Times New Roman,Times New Roman_MSFontService,sans-serif" font-weight="400" font-size="73" transform="matrix(1 0 0 1 2340.86 1429)">-</text><text font-family="Times New Roman,Times New Roman_MSFontService,sans-serif" font-weight="400" font-size="73" transform="matrix(1 0 0 1 2383.82 1429)">Landsat 7, 8</text><text font-family="Times New Roman,Times New Roman_MSFontService,sans-serif" font-weight="400" font-size="73" transform="matrix(1 0 0 1 2340.86 1517)">-</text><text font-family="Times New Roman,Times New Roman_MSFontService,sans-serif" font-weight="400" font-size="73" transform="matrix(1 0 0 1 2382.5 1517)">WorldView</text><text font-family="Times New Roman,Times New Roman_MSFontService,sans-serif" font-weight="400" font-size="73" transform="matrix(1 0 0 1 2737.18 1517)">2, 3, 4</text><path d="M2258.5 1681.67C2258.5 1666.66 2270.66 1654.5 2285.67 1654.5L3079.33 1654.5C3094.34 1654.5 3106.5 1666.66 3106.5 1681.67L3106.5 1790.33C3106.5 1805.34 3094.34 1817.5 3079.33 1817.5L2285.67 1817.5C2270.66 1817.5 2258.5 1805.34 2258.5 1790.33Z" stroke="#000000" stroke-width="4.58333" stroke-miterlimit="8" fill="#FEF8F4" fill-rule="evenodd" fill-opacity="0.2"/><text font-family="Times New Roman,Times New Roman_MSFontService,sans-serif" font-weight="400" font-size="73" transform="matrix(1 0 0 1 2378.83 1762)">QuickBird</text><text font-family="Times New Roman,Times New Roman_MSFontService,sans-serif" font-weight="400" font-size="73" transform="matrix(1 0 0 1 2688.78 1762)">/IKONOS</text><rect x="3255.5" y="1216.5" width="393" height="164" stroke="#000000" stroke-width="4.58333" stroke-miterlimit="8" fill="#E8D9F3" fill-opacity="0.2"/><text font-family="Times New Roman,Times New Roman_MSFontService,sans-serif" font-weight="400" font-size="73" transform="matrix(1 0 0 1 3359.85 1325)">PSNR</text><rect x="3712.5" y="1216.5" width="393" height="164" stroke="#000000" stroke-width="4.58333" stroke-miterlimit="8" fill="#E8D9F3" fill-opacity="0.2"/><text font-family="Times New Roman,Times New Roman_MSFontService,sans-serif" font-weight="400" font-size="73" transform="matrix(1 0 0 1 3822.73 1325)">SSIM</text><rect x="3256.5" y="1435.5" width="393" height="163" stroke="#000000" stroke-width="4.58333" stroke-miterlimit="8" fill="#E8D9F3" fill-opacity="0.2"/><text font-family="Times New Roman,Times New Roman_MSFontService,sans-serif" font-weight="400" font-size="73" transform="matrix(1 0 0 1 3373.23 1544)">SAM</text><rect x="3712.5" y="1435.5" width="393" height="163" stroke="#000000" stroke-width="4.58333" stroke-miterlimit="8" fill="#E8D9F3" fill-opacity="0.2"/><text font-family="Times New Roman,Times New Roman_MSFontService,sans-serif" font-weight="400" font-size="73" transform="matrix(1 0 0 1 3839.35 1544)">SCC</text><rect x="3256.5" y="1654.5" width="392" height="163" stroke="#000000" stroke-width="4.58333" stroke-miterlimit="8" fill="#E8D9F3" fill-opacity="0.2"/><text font-family="Times New Roman,Times New Roman_MSFontService,sans-serif" font-weight="400" font-size="73" transform="matrix(1 0 0 1 3332.44 1762)">ERGAS</text><rect x="3714.5" y="1648.5" width="391" height="163" stroke="#000000" stroke-width="4.58333" stroke-miterlimit="8" fill="#E8D9F3" fill-opacity="0.2"/><text font-family="Times New Roman,Times New Roman_MSFontService,sans-serif" font-weight="400" font-size="73" transform="matrix(1 0 0 1 3834 1756)">MSE</text><rect x="756.5" y="1654.5" width="392" height="163" stroke="#000000" stroke-width="4.58333" stroke-miterlimit="8" fill="#FFEEBD" fill-opacity="0.2"/><text font-family="Times New Roman,Times New Roman_MSFontService,sans-serif" font-weight="400" font-size="73" transform="matrix(1 0 0 1 864.183 1762)">Script</text></g></svg>
